<mxfile host="app.diagrams.net" agent="Mozilla/5.0 (Windows NT 10.0; Win64; x64) AppleWebKit/537.36 (KHTML, like Gecko) Chrome/132.0.0.0 Safari/537.36" version="26.0.14">
  <diagram name="PÃ¡gina-1" id="o6JE1oCrLX05qNkJgzXL">
    <mxGraphModel dx="1050" dy="569" grid="1" gridSize="10" guides="1" tooltips="1" connect="1" arrows="1" fold="1" page="1" pageScale="1" pageWidth="827" pageHeight="1169" math="0" shadow="0">
      <root>
        <mxCell id="0" />
        <mxCell id="1" parent="0" />
        <mxCell id="07OyoXs9L7dZAtybCwjh-13" value="&lt;div&gt;REQUESTS&lt;/div&gt;" style="shape=folder;fontStyle=1;spacingTop=10;tabWidth=40;tabHeight=14;tabPosition=left;html=1;whiteSpace=wrap;verticalAlign=top;fillColor=#ffe6cc;strokeColor=#d79b00;" vertex="1" parent="1">
          <mxGeometry x="30" y="360" width="274" height="180" as="geometry" />
        </mxCell>
        <mxCell id="07OyoXs9L7dZAtybCwjh-1" value="package" style="shape=folder;fontStyle=1;spacingTop=10;tabWidth=40;tabHeight=14;tabPosition=left;html=1;whiteSpace=wrap;" vertex="1" parent="1">
          <mxGeometry x="520" y="370" width="70" height="50" as="geometry" />
        </mxCell>
        <mxCell id="07OyoXs9L7dZAtybCwjh-2" value="package" style="shape=folder;fontStyle=1;spacingTop=10;tabWidth=40;tabHeight=14;tabPosition=left;html=1;whiteSpace=wrap;" vertex="1" parent="1">
          <mxGeometry x="520" y="160" width="70" height="50" as="geometry" />
        </mxCell>
        <mxCell id="07OyoXs9L7dZAtybCwjh-3" value="&lt;div&gt;&lt;br&gt;&lt;/div&gt;ENUMs" style="shape=folder;fontStyle=1;spacingTop=10;tabWidth=40;tabHeight=14;tabPosition=left;html=1;whiteSpace=wrap;verticalAlign=top;fillColor=#ffe6cc;strokeColor=#d79b00;" vertex="1" parent="1">
          <mxGeometry x="140" y="110" width="274" height="180" as="geometry" />
        </mxCell>
        <mxCell id="07OyoXs9L7dZAtybCwjh-4" value="package" style="shape=folder;fontStyle=1;spacingTop=10;tabWidth=40;tabHeight=14;tabPosition=left;html=1;whiteSpace=wrap;" vertex="1" parent="1">
          <mxGeometry x="280" y="350" width="70" height="50" as="geometry" />
        </mxCell>
        <mxCell id="07OyoXs9L7dZAtybCwjh-7" value="package" style="shape=folder;fontStyle=1;spacingTop=10;tabWidth=40;tabHeight=14;tabPosition=left;html=1;whiteSpace=wrap;" vertex="1" parent="1">
          <mxGeometry x="120" y="300" width="70" height="50" as="geometry" />
        </mxCell>
        <mxCell id="07OyoXs9L7dZAtybCwjh-8" style="edgeStyle=orthogonalEdgeStyle;rounded=0;orthogonalLoop=1;jettySize=auto;html=1;exitX=0;exitY=0;exitDx=70;exitDy=41;exitPerimeter=0;entryX=0;entryY=0;entryDx=70;entryDy=50;entryPerimeter=0;" edge="1" parent="1" source="07OyoXs9L7dZAtybCwjh-7" target="07OyoXs9L7dZAtybCwjh-7">
          <mxGeometry relative="1" as="geometry" />
        </mxCell>
        <mxCell id="07OyoXs9L7dZAtybCwjh-9" value="DATA" style="shape=folder;fontStyle=1;spacingTop=10;tabWidth=40;tabHeight=14;tabPosition=left;html=1;whiteSpace=wrap;fillColor=#fff2cc;strokeColor=#d6b656;" vertex="1" parent="1">
          <mxGeometry x="40" y="400" width="70" height="50" as="geometry" />
        </mxCell>
        <mxCell id="07OyoXs9L7dZAtybCwjh-10" value="package" style="shape=folder;fontStyle=1;spacingTop=10;tabWidth=40;tabHeight=14;tabPosition=left;html=1;whiteSpace=wrap;fillColor=#fff2cc;strokeColor=#d6b656;" vertex="1" parent="1">
          <mxGeometry x="160" y="420" width="70" height="50" as="geometry" />
        </mxCell>
        <mxCell id="07OyoXs9L7dZAtybCwjh-11" value="package" style="shape=folder;fontStyle=1;spacingTop=10;tabWidth=40;tabHeight=14;tabPosition=left;html=1;whiteSpace=wrap;fillColor=#fff2cc;strokeColor=#d6b656;" vertex="1" parent="1">
          <mxGeometry x="560" y="230" width="70" height="50" as="geometry" />
        </mxCell>
        <mxCell id="07OyoXs9L7dZAtybCwjh-12" value="package" style="shape=folder;fontStyle=1;spacingTop=10;tabWidth=40;tabHeight=14;tabPosition=left;html=1;whiteSpace=wrap;fillColor=#fff2cc;strokeColor=#d6b656;" vertex="1" parent="1">
          <mxGeometry x="590" y="250" width="70" height="50" as="geometry" />
        </mxCell>
        <mxCell id="07OyoXs9L7dZAtybCwjh-14" value="LAS LINEAS DISCONTINUAS INDICAN DEPENDENCIAS&lt;div&gt;&lt;br&gt;&lt;/div&gt;" style="text;align=center;fontStyle=1;verticalAlign=middle;spacingLeft=3;spacingRight=3;strokeColor=none;rotatable=0;points=[[0,0.5],[1,0.5]];portConstraint=eastwest;html=1;" vertex="1" parent="1">
          <mxGeometry x="334" y="30" width="80" height="26" as="geometry" />
        </mxCell>
      </root>
    </mxGraphModel>
  </diagram>
</mxfile>
